<svg xmlns="http://www.w3.org/2000/svg" version="1.1" xmlns:xlink="http://www.w3.org/1999/xlink" xmlns:svgjs="http://svgjs.dev/svgjs" width="1500" height="1500" viewBox="0 0 1500 1500"><rect width="1500" height="1500" fill="#8abe53"></rect><g transform="matrix(0.6666666666666666,0,0,0.6666666666666666,250.00000000000017,187.66666666666674)"><svg viewBox="0 0 320 360" data-background-color="#8abe53" preserveAspectRatio="xMidYMid meet" height="1687" width="1500" xmlns="http://www.w3.org/2000/svg" xmlns:xlink="http://www.w3.org/1999/xlink"><g id="tight-bounds" transform="matrix(1,0,0,1,0,0)"><svg viewBox="0 0 320 360" height="360" width="320"><g><svg></svg></g><g><svg viewBox="0 0 320 360" height="360" width="320"><g><path d="M20.961 227.22l3.726 4.658-1.863-6.056c-0.466-2.795-3.726 0.466-1.863 1.398M25.153 224.425c1.397 2.329 2.795 4.658 2.795 6.987 0 3.261 2.795 4.658 5.123 5.589-3.261-3.726-5.124-13.974-7.918-12.576M204.017 26.929c7.918 0 15.371-0.932 23.756 0.931 20.495 5.124 37.729 15.371 49.374 29.811l32.606 52.169c1.397 13.042 4.192 27.482 3.726 43.319 3.261 0 2.795-4.658 6.521-5.59-3.726 9.316-5.59 20.961-6.521 34.469-2.329-7.453 0-18.632 0.466-24.687-3.261 5.124-5.124 1.397-5.124-0.932 0.466-3.726-1.397-3.261-2.795-4.658-5.124-4.658-8.384-9.782-12.11-17.7 2.329-6.055 2.795-14.905-4.658-19.563-2.329-1.397-5.124-3.726-6.521-7.453-1.863-5.124-5.124-11.179-4.193-19.097 0.466-2.329-6.987 5.124-11.179 1.863-18.166-12.576-36.332-27.016-58.224-39.127-11.645 0-20.029-4.192-24.221-9.316-3.726-4.658-0.932-10.713 4.658-11.179 3.261 0 6.987-0.932 9.782 0.932 0.466-1.863 2.329-4.192 4.657-4.192M157.904 16.215l0.932 0.466c4.658 0.932 6.987 7.453 12.11 5.124 0 3.261 0.466 6.521-0.466 8.85-1.397 3.726-5.59 3.726-8.85 3.726-31.208-1.863-49.374 11.179-68.471 22.358-5.124 3.261-10.713 5.59-14.906 9.782-20.029 18.632-41.921 35.866-47.045 70.335l-4.192 38.195c-0.466 4.192-5.124 8.384-4.192 13.508l3.26 22.824c-3.261-3.261-5.124 0.932-4.192 2.795 0.466 1.397 2.329 6.055 5.124 1.863 3.726 6.987 7.453 20.495 12.576 26.55 15.837 18.632 36.332 35.4 53.101 52.169 4.192-0.932 7.453-0.932 8.384-3.727 1.397 2.795-1.397 5.59-3.726 6.056 7.453 4.658 15.837 8.85 27.016 9.781 14.44 0.932 27.948 3.261 40.524 6.522 6.521-1.863 13.042-2.795 20.029-3.261 2.329 0 3.726-3.726 6.521-4.658l0.466-4.658c2.795 4.192 2.329-1.397 0.466-4.192 3.261 2.795 4.192 5.124 5.589 6.987 0-1.397 3.726-6.521 3.727-0.466l0.931-6.055c1.397-0.932 1.863 5.124 3.261 0.931 1.397-4.192 4.192-0.932 6.987-2.329-0.932 1.863-0.466 5.59 2.794 3.261l3.727-3.261c2.329 5.59 6.055 3.261 7.918 2.329 20.495-13.042 40.99-28.413 60.553-43.784l-0.466 6.055 2.329-7.453c2.329 2.329 4.192 0.466 5.124-0.931 2.795-4.658 6.521-9.316 12.577-13.508-7.453 20.029-16.303 35.866-27.482 48.908l-4.658 5.59c0 3.261-0.932 7.453-4.658 7.918-1.863 0.466-5.59-0.932-8.384 1.863-1.397 1.863 3.261 5.59-0.466 2.795-3.261-2.329-6.521 0-10.248 0.932-2.795 0.932 1.863 3.726 2.795 5.589 0.932 1.863 1.863 3.726 1.398 6.056l-5.124-5.59c-6.055 3.261-9.782 9.316-14.906 13.974-2.329 1.863-1.397 5.124-1.397 7.918-3.261 0-6.987-0.932-8.85 0.932-1.397 1.863-0.932 4.658-0.932 7.453-4.658-0.466-5.124-7.453-9.315-6.056-4.192 0.932-8.85 1.397-12.577 3.727 2.795 5.59-4.658 2.329-3.726 3.26-6.987-4.192-13.042-7.453-20.495-4.658-15.837-5.124-35.4-2.795-49.84-0.931 0-2.329 0.466-4.658-0.466-5.124-0.932 2.329-3.726 1.397-3.26 1.397-8.85-6.055-17.7-9.782-27.016-14.905-8.384 0.932-16.303-3.261-18.632-5.59-6.521-6.055-13.974-2.795-20.029-4.192-13.042-3.261-17.7-16.769-19.098-26.084-0.932-4.658-4.658-6.521-6.055-6.056-6.055-19.563-15.371-37.263-22.824-55.429-1.863-4.658-1.397-9.316-1.397-14.44 2.329 0.932 4.658 0.466 4.192-2.794-2.329-15.371-7.918-27.016-13.974-38.195 3.261-15.837 3.726-34.469 11.179-48.443 6.521-12.576 18.632-19.098 27.016-29.811 2.795-3.726 2.795-8.85 5.59-12.11 9.316-9.316 18.632-19.098 28.879-27.482 4.658-3.726 10.247 0 17.234-1.397 2.329-8.384 11.645-15.837 20.495-13.508 3.726 0.932 11.179-8.85 13.508-9.782 3.726-1.397 1.863 3.726 1.863 6.987 8.85-6.987 20.961-10.713 32.14-14.906" fill="#ffffff" fill-rule="nonzero" stroke="none" stroke-width="1" stroke-linecap="butt" stroke-linejoin="miter" stroke-miterlimit="10" stroke-dasharray="" stroke-dashoffset="0" font-family="none" font-weight="none" font-size="none" text-anchor="none" style="mix-blend-mode: normal" data-fill-palette-color="tertiary"></path></g><g transform="matrix(1,0,0,1,64,134.3471229747762)"><svg viewBox="0 0 192 91.30575405044763" height="91.30575405044763" width="192"><g><svg viewBox="0 0 192 91.30575405044763" height="91.30575405044763" width="192"><g><svg viewBox="0 0 192 91.30575405044763" height="91.30575405044763" width="192"><g><svg viewBox="0 0 192 91.30575405044763" height="91.30575405044763" width="192"><g id="textblocktransform"><svg viewBox="0 0 192 91.30575405044763" height="91.30575405044763" width="192" id="textblock"><g><svg viewBox="0 0 192 64.93023255813954" height="64.93023255813954" width="192"><g transform="matrix(1,0,0,1,0,0)"><svg width="192" viewBox="3.35 -34.55 103.2 34.9" height="64.93023255813954" data-palette-color="#ffffff"><path d="M35.3-29.95L35.3-4.75Q35.3-2.55 34-1.28 32.7 0 30.2 0L30.2 0Q29.55 0 28.9-0.15 28.25-0.3 27.53-0.7 26.8-1.1 26.25-1.45 25.7-1.8 24.88-2.53 24.05-3.25 23.58-3.68 23.1-4.1 22.1-5.05 21.1-6 20.65-6.45L20.65-6.45 11.5-15.1 11.5-4.25Q11.5-1.8 10.58-0.9 9.65 0 7.65 0L7.65 0Q5.45 0 4.4-1 3.35-2 3.35-4.35L3.35-4.35 3.35-28.5Q3.35-31.35 4.8-32.8 6.25-34.25 8.95-34.25L8.95-34.25Q10.8-34.25 11.93-33.68 13.05-33.1 14.6-31.6L14.6-31.6 27.25-19 27.25-29.9Q27.25-32.05 28.33-33.13 29.4-34.2 31.25-34.2L31.25-34.2Q33.4-34.2 34.35-33.2 35.3-32.2 35.3-29.95L35.3-29.95ZM53.25-13.4L53.25-6.95Q53.25-3.55 51.75-1.78 50.25 0 47.4 0L47.4 0Q44.7 0 43.2-1.63 41.7-3.25 41.7-7.15L41.7-7.15 41.7-28.25Q41.7-29.85 42.12-31.03 42.55-32.2 43.35-32.9 44.15-33.6 45.15-33.93 46.15-34.25 47.4-34.25L47.4-34.25 63.8-34.25Q66.7-34.25 68.12-33.35 69.55-32.45 69.55-30.1L69.55-30.1Q69.55-27.9 68.32-27.03 67.1-26.15 64.3-26.15L64.3-26.15 53.25-26.15 53.25-20.3 62.05-20.3Q63.4-20.3 64.32-20.1 65.25-19.9 65.82-19.43 66.4-18.95 66.62-18.28 66.85-17.6 66.85-16.55L66.85-16.55Q66.85-14.85 65.6-14.13 64.35-13.4 61.6-13.4L61.6-13.4 53.25-13.4ZM93.55-24.85L93.55-24.85Q93.55-25.9 92.67-26.65 91.8-27.4 90.6-27.4L90.6-27.4Q88.2-27.4 86.65-24.68 85.1-21.95 85.1-18.5L85.1-18.5Q85.1-15.85 86.1-13.73 87.1-11.6 89-10.35 90.9-9.1 93.4-9.1L93.4-9.1Q95.25-9.1 96.95-9.83 98.65-10.55 99.7-11.43 100.75-12.3 101.87-13.03 103-13.75 103.85-13.75L103.85-13.75Q104.95-13.75 105.75-12.88 106.55-12 106.55-11.05L106.55-11.05Q106.55-10 105.92-8.6 105.3-7.2 103.95-5.63 102.6-4.05 100.8-2.73 99-1.4 96.32-0.53 93.65 0.35 90.7 0.35L90.7 0.35Q86.8 0.35 83.47-0.83 80.15-2 77.7-4.17 75.25-6.35 73.85-9.65 72.45-12.95 72.45-17.05L72.45-17.05Q72.45-25.15 77.3-29.85 82.15-34.55 90-34.55L90-34.55Q94-34.55 97.4-33.2 100.8-31.85 102.8-29.45 104.8-27.05 104.8-24.2L104.8-24.2Q104.8-20.9 102.6-18.23 100.4-15.55 96.9-15.55L96.9-15.55Q94.9-15.55 93.3-16.65 91.7-17.75 91.7-19.8L91.7-19.8Q91.7-20.75 92.62-22.45 93.55-24.15 93.55-24.85Z" opacity="1" transform="matrix(1,0,0,1,0,0)" fill="#ffffff" class="wordmark-text-0" data-fill-palette-color="primary" id="text-0"></path></svg></g></svg></g><g transform="matrix(1,0,0,1,0,74.40511181395348)"><svg viewBox="0 0 192 16.900642236494143" height="16.900642236494143" width="192"><g transform="matrix(1,0,0,1,0,0)"><svg width="192" viewBox="2.55 -34.6 397.55 34.95" height="16.900642236494143" data-palette-color="#382c80"><g class="slogan-text-1" data-fill-palette-color="secondary" id="text-1"><path d="M23.65-24.85L23.65-24.85Q23.65-25.9 22.78-26.65 21.9-27.4 20.7-27.4L20.7-27.4Q18.3-27.4 16.75-24.68 15.2-21.95 15.2-18.5L15.2-18.5Q15.2-15.85 16.2-13.73 17.2-11.6 19.1-10.35 21-9.1 23.5-9.1L23.5-9.1Q25.35-9.1 27.05-9.83 28.75-10.55 29.8-11.43 30.85-12.3 31.98-13.03 33.1-13.75 33.95-13.75L33.95-13.75Q35.05-13.75 35.85-12.88 36.65-12 36.65-11.05L36.65-11.05Q36.65-10 36.02-8.6 35.4-7.2 34.05-5.63 32.7-4.05 30.9-2.73 29.1-1.4 26.43-0.53 23.75 0.35 20.8 0.35L20.8 0.35Q16.9 0.35 13.58-0.83 10.25-2 7.8-4.17 5.35-6.35 3.95-9.65 2.55-12.95 2.55-17.05L2.55-17.05Q2.55-25.15 7.4-29.85 12.25-34.55 20.1-34.55L20.1-34.55Q24.1-34.55 27.5-33.2 30.9-31.85 32.9-29.45 34.9-27.05 34.9-24.2L34.9-24.2Q34.9-20.9 32.7-18.23 30.5-15.55 27-15.55L27-15.55Q25-15.55 23.4-16.65 21.8-17.75 21.8-19.8L21.8-19.8Q21.8-20.75 22.73-22.45 23.65-24.15 23.65-24.85ZM57.6-11.85L57.6-11.85Q57.6-14.45 56.95-16.43 56.3-18.4 55.05-18.4L55.05-18.4Q54.2-18.4 53.55-17.4 52.9-16.4 52.6-14.95 52.3-13.5 52.3-11.85L52.3-11.85Q52.3-9.3 53-7.38 53.7-5.45 55-5.45 56.3-5.45 56.95-7.35 57.6-9.25 57.6-11.85ZM55 0.35L55 0.35Q51.1 0.35 47.98-1.05 44.85-2.45 42.98-5.25 41.1-8.05 41.1-11.8L41.1-11.8Q41.1-17.5 45-20.85 48.9-24.2 55-24.2 61.1-24.2 64.95-20.85 68.8-17.5 68.8-11.8L68.8-11.8Q68.8-6.15 64.88-2.9 60.95 0.35 55 0.35ZM102.65-4.15L102.65-13.2Q102.65-16 100.4-16L100.4-16Q99.4-16 98.9-14.85 98.4-13.7 98.4-11.95L98.4-11.95Q98.4-9.3 98.33-7.55 98.25-5.8 98-4.4 97.75-3 97.4-2.2 97.05-1.4 96.45-0.88 95.85-0.35 95.1-0.18 94.35 0 93.2 0L93.2 0Q91.45 0 90.38-0.5 89.3-1 88.85-1.9 88.4-2.8 88.4-4.15L88.4-4.15 88.4-13.2Q88.4-16 86.15-16L86.15-16Q85.25-16 84.68-14.98 84.1-13.95 84.1-12.3L84.1-12.3 84.1-5.35Q84.1-2.35 82.85-1.18 81.6 0 78.45 0L78.45 0Q75.5 0 74.43-1.38 73.35-2.75 73.35-5.9L73.35-5.9 73.35-18.2Q73.35-20.75 74.73-22.3 76.1-23.85 78.4-23.85L78.4-23.85Q82.5-23.85 83.6-21.2L83.6-21.2Q85.5-22.6 87.33-23.15 89.15-23.7 91.6-23.7L91.6-23.7Q95.3-23.7 96.95-20.5L96.95-20.5Q97.2-20.7 97.45-20.9L97.45-20.9Q101.3-23.7 106.9-23.7L106.9-23.7Q110.45-23.7 112-21 113.55-18.3 113.55-11.95L113.55-11.95Q113.55-9.3 113.48-7.55 113.4-5.8 113.15-4.4 112.9-3 112.53-2.2 112.15-1.4 111.48-0.88 110.8-0.35 109.98-0.18 109.15 0 107.9 0L107.9 0Q106 0 104.83-0.5 103.65-1 103.15-1.9 102.65-2.8 102.65-4.15L102.65-4.15ZM147.9-4.15L147.9-13.2Q147.9-16 145.65-16L145.65-16Q144.65-16 144.15-14.85 143.65-13.7 143.65-11.95L143.65-11.95Q143.65-9.3 143.58-7.55 143.5-5.8 143.25-4.4 143-3 142.65-2.2 142.3-1.4 141.7-0.88 141.1-0.35 140.35-0.18 139.6 0 138.45 0L138.45 0Q136.7 0 135.63-0.5 134.55-1 134.1-1.9 133.65-2.8 133.65-4.15L133.65-4.15 133.65-13.2Q133.65-16 131.4-16L131.4-16Q130.5-16 129.93-14.98 129.35-13.95 129.35-12.3L129.35-12.3 129.35-5.35Q129.35-2.35 128.1-1.18 126.85 0 123.7 0L123.7 0Q120.75 0 119.68-1.38 118.6-2.75 118.6-5.9L118.6-5.9 118.6-18.2Q118.6-20.75 119.98-22.3 121.35-23.85 123.65-23.85L123.65-23.85Q127.75-23.85 128.85-21.2L128.85-21.2Q130.75-22.6 132.58-23.15 134.4-23.7 136.85-23.7L136.85-23.7Q140.55-23.7 142.2-20.5L142.2-20.5Q142.45-20.7 142.7-20.9L142.7-20.9Q146.55-23.7 152.15-23.7L152.15-23.7Q155.7-23.7 157.25-21 158.8-18.3 158.8-11.95L158.8-11.95Q158.8-9.3 158.73-7.55 158.65-5.8 158.4-4.4 158.15-3 157.78-2.2 157.4-1.4 156.73-0.88 156.05-0.35 155.23-0.18 154.4 0 153.15 0L153.15 0Q151.25 0 150.08-0.5 148.9-1 148.4-1.9 147.9-2.8 147.9-4.15L147.9-4.15ZM174.4-19.7L174.45-10.55Q174.45-7.7 176.65-7.7L176.65-7.7Q177.4-7.7 177.98-8.18 178.55-8.65 178.85-9.5 179.15-10.35 179.15-11.45L179.15-11.45 179.15-18.15Q179.15-19.85 179.75-21.13 180.35-22.4 181.5-23.1 182.65-23.8 184.2-23.8L184.2-23.8Q186.9-23.8 188.4-22.63 189.9-21.45 189.9-18.3L189.9-18.3 189.9-5.3Q189.9-2.25 188.65-1.1 187.4 0.05 184.25 0.05L184.25 0.05Q182.9 0.05 181.95-0.23 181-0.5 180.43-1.05 179.85-1.6 179.55-2.5L179.55-2.5Q177.5-1.15 175.23-0.6 172.95-0.05 170.15-0.05L170.15-0.05Q166.6-0.05 165.05-2.83 163.5-5.6 163.5-11.95L163.5-11.95Q163.5-15.1 163.65-17.07 163.8-19.05 164.13-20.48 164.45-21.9 165.13-22.6 165.8-23.3 166.73-23.6 167.65-23.9 169.15-23.9L169.15-23.9Q171.95-23.9 173.18-22.85 174.4-21.8 174.4-19.7L174.4-19.7ZM210.15-4.15L210.1-13.45Q210.1-16.25 207.9-16.25L207.9-16.25Q206.85-16.25 206.18-15.38 205.5-14.5 205.4-13.05L205.4-13.05 205.4-5.35Q205.4-2.3 204.15-1.15 202.9 0 199.75 0L199.75 0Q196.8 0 195.73-1.38 194.65-2.75 194.65-5.9L194.65-5.9 194.65-18.2Q194.65-20.75 196.03-22.3 197.4-23.85 199.7-23.85L199.7-23.85Q201.6-23.85 202.9-23.3 204.2-22.75 204.85-21.4L204.85-21.4Q208.75-23.95 214.35-23.95L214.35-23.95Q217.9-23.95 219.48-21.15 221.05-18.35 221.05-11.95L221.05-11.95Q221.05-8.8 220.9-6.83 220.75-4.85 220.43-3.43 220.1-2 219.4-1.3 218.7-0.6 217.78-0.3 216.85 0 215.4 0L215.4 0Q212.6 0 211.38-1.05 210.15-2.1 210.15-4.15L210.15-4.15ZM225.4-30.8L225.4-30.8Q225.4-32.45 226.83-33.52 228.25-34.6 230.85-34.6L230.85-34.6Q236.3-34.6 236.3-30.8L236.3-30.8Q236.3-28.7 234.93-27.85 233.55-27 230.85-27L230.85-27Q228.5-27 226.95-27.9 225.4-28.8 225.4-30.8ZM236.25-18.35L236.25-5.35Q236.25-2.35 235-1.18 233.75 0 230.6 0L230.6 0Q227.65 0 226.58-1.38 225.5-2.75 225.5-5.9L225.5-5.9 225.5-18.2Q225.5-20.75 226.88-22.3 228.25-23.85 230.55-23.85L230.55-23.85Q233.25-23.85 234.75-22.68 236.25-21.5 236.25-18.35L236.25-18.35ZM255.6-18.7L255.6-18.7Q255.6-19.85 254.3-19.85L254.3-19.85Q253.35-19.85 252.6-18.8 251.85-17.75 251.45-16.18 251.05-14.6 251.05-12.9L251.05-12.9Q251.05-10.4 252.58-8.85 254.1-7.3 256.7-7.3L256.7-7.3Q259.25-7.3 261.1-7.9L261.1-7.9Q261.85-8.1 262.93-8.65 264-9.2 264.45-9.2L264.45-9.2Q265.15-9.2 265.6-8.95 266.05-8.7 266.23-8.35 266.4-8 266.4-7.6L266.4-7.6Q266.4-6.9 265.93-5.9 265.45-4.9 264.45-3.8 263.45-2.7 262.13-1.78 260.8-0.85 258.85-0.25 256.9 0.35 254.75 0.35L254.75 0.35Q248.55 0.35 244.55-2.98 240.55-6.3 240.55-12.1L240.55-12.1Q240.55-15.8 242.38-18.57 244.2-21.35 247.4-22.78 250.6-24.2 254.75-24.2L254.75-24.2Q258.7-24.2 261.28-23.28 263.85-22.35 264.95-20.8 266.05-19.25 266.05-17.1L266.05-17.1Q266.05-16.15 265.68-15.15 265.3-14.15 264.53-13.15 263.75-12.15 262.25-11.53 260.75-10.9 258.75-10.9L258.75-10.9Q257.85-10.9 257.28-11 256.7-11.1 256.08-11.43 255.45-11.75 255.15-12.5 254.85-13.25 254.85-14.4L254.85-14.4Q254.85-15.4 255.23-16.82 255.6-18.25 255.6-18.7ZM279.7 0.3L279.7 0.3Q275.75 0.3 273.15-2.93 270.55-6.15 270.55-11.75L270.55-11.75Q270.55-17.45 273.13-20.83 275.7-24.2 279.7-24.2L279.7-24.2Q283.75-24.2 287.2-21.35L287.2-21.35Q288.55-23.85 291.55-23.85L291.55-23.85Q294.25-23.85 295.75-22.68 297.25-21.5 297.25-18.35L297.25-18.35 297.25-5.35Q297.25-2.35 296-1.18 294.75 0 291.6 0L291.6 0Q288.3 0 287.25-1.85L287.25-1.85Q284.05 0.3 279.7 0.3ZM286.5-7.2L286.5-16.55Q285.65-18 284.3-18L284.3-18Q283-18 282.2-16.1 281.4-14.2 281.4-11.75L281.4-11.75Q281.4-9.45 282.15-7.65 282.9-5.85 284.25-5.85L284.25-5.85Q285.65-5.85 286.5-7.2L286.5-7.2ZM304.45-10.7L304.45-10.7 304.45-16.6Q303.2-16.65 302.45-17.03 301.7-17.4 301.38-18 301.05-18.6 301.05-19.5L301.05-19.5Q301.05-22.35 304.5-22.6L304.5-22.6 304.5-27.25Q304.5-29.15 307.25-30.68 310-32.2 312.7-32.2L312.7-32.2Q314.35-32.2 314.85-31.25 315.35-30.3 315.35-28.4L315.35-28.4 315.4-22.65 316.75-22.65Q319.5-22.65 320.53-21.93 321.55-21.2 321.55-19.3L321.55-19.3Q321.55-18.5 321.25-17.95 320.95-17.4 320.28-17.1 319.6-16.8 318.65-16.68 317.7-16.55 316.3-16.55L316.3-16.55 315.4-16.55 315.4-11.05Q315.4-10.25 315.48-9.73 315.55-9.2 315.7-8.9 315.85-8.6 316.13-8.5 316.4-8.4 316.8-8.4L316.8-8.4Q317.4-8.4 317.8-8.83 318.2-9.25 318.43-9.78 318.65-10.3 319.03-10.73 319.4-11.15 319.9-11.15L319.9-11.15Q321.05-11.15 321.68-10.6 322.3-10.05 322.3-9.25L322.3-9.25Q322.3-7.9 321.78-6.35 321.25-4.8 320.25-3.35 319.25-1.9 317.48-0.95 315.7 0 313.5 0L313.5 0Q308.55 0 306.5-2.5 304.45-5 304.45-10.7ZM326.85-30.8L326.85-30.8Q326.85-32.45 328.28-33.52 329.7-34.6 332.3-34.6L332.3-34.6Q337.75-34.6 337.75-30.8L337.75-30.8Q337.75-28.7 336.38-27.85 335-27 332.3-27L332.3-27Q329.95-27 328.4-27.9 326.85-28.8 326.85-30.8ZM337.7-18.35L337.7-5.35Q337.7-2.35 336.45-1.18 335.2 0 332.05 0L332.05 0Q329.1 0 328.03-1.38 326.95-2.75 326.95-5.9L326.95-5.9 326.95-18.2Q326.95-20.75 328.33-22.3 329.7-23.85 332-23.85L332-23.85Q334.7-23.85 336.2-22.68 337.7-21.5 337.7-18.35L337.7-18.35ZM358.4-11.85L358.4-11.85Q358.4-14.45 357.75-16.43 357.1-18.4 355.85-18.4L355.85-18.4Q355-18.4 354.35-17.4 353.7-16.4 353.4-14.95 353.1-13.5 353.1-11.85L353.1-11.85Q353.1-9.3 353.8-7.38 354.5-5.45 355.8-5.45 357.1-5.45 357.75-7.35 358.4-9.25 358.4-11.85ZM355.8 0.35L355.8 0.35Q351.9 0.35 348.78-1.05 345.65-2.45 343.78-5.25 341.9-8.05 341.9-11.8L341.9-11.8Q341.9-17.5 345.8-20.85 349.7-24.2 355.8-24.2 361.9-24.2 365.75-20.85 369.6-17.5 369.6-11.8L369.6-11.8Q369.6-6.15 365.68-2.9 361.75 0.35 355.8 0.35ZM389.2-4.15L389.15-13.45Q389.15-16.25 386.95-16.25L386.95-16.25Q385.9-16.25 385.23-15.38 384.55-14.5 384.45-13.05L384.45-13.05 384.45-5.35Q384.45-2.3 383.2-1.15 381.95 0 378.8 0L378.8 0Q375.85 0 374.78-1.38 373.7-2.75 373.7-5.9L373.7-5.9 373.7-18.2Q373.7-20.75 375.08-22.3 376.45-23.85 378.75-23.85L378.75-23.85Q380.65-23.85 381.95-23.3 383.25-22.75 383.9-21.4L383.9-21.4Q387.8-23.95 393.4-23.95L393.4-23.95Q396.95-23.95 398.53-21.15 400.1-18.35 400.1-11.95L400.1-11.95Q400.1-8.8 399.95-6.83 399.8-4.85 399.48-3.43 399.15-2 398.45-1.3 397.75-0.6 396.83-0.3 395.9 0 394.45 0L394.45 0Q391.65 0 390.43-1.05 389.2-2.1 389.2-4.15L389.2-4.15Z" fill="#ffffff" data-fill-palette-color="primary"></path></g></svg></g></svg></g></svg></g></svg></g></svg></g></svg></g></svg></g></svg></g><defs></defs></svg><rect width="320" height="360" fill="none" stroke="none" visibility="hidden"></rect></g></svg></g></svg>